<svg id="svg" xmlns="http://www.w3.org/2000/svg" xmlns:xlink="http://www.w3.org/1999/xlink" width="400" height="400" viewBox="0, 0, 400,400"><g id="svgg"><path id="path0" d="M110.677 57.870 C 97.468 62.414,89.004 73.028,87.526 86.901 C 87.148 90.453,86.843 129.746,86.848 174.219 C 86.852 218.691,86.825 258.828,86.788 263.411 L 86.719 271.744 77.539 272.005 C 57.565 272.572,52.740 278.930,52.737 304.688 C 52.733 331.358,58.725 342.428,76.385 348.378 C 83.965 350.931,266.044 350.928,273.626 348.374 C 283.795 344.948,291.828 336.908,295.260 326.718 C 296.856 321.980,296.875 320.852,296.875 229.747 L 296.875 137.571 318.164 137.340 C 348.466 137.012,346.884 138.692,346.856 106.861 C 346.845 95.138,346.489 84.038,346.063 82.194 C 343.538 71.246,334.606 61.575,323.593 57.865 C 316.174 55.366,117.943 55.371,110.677 57.870 M280.849 76.367 C 277.819 83.659,277.918 79.780,277.668 201.534 C 277.537 265.756,277.207 319.194,276.935 320.284 C 274.390 330.489,258.144 334.343,249.243 326.853 C 244.663 323.000,244.301 321.460,243.756 303.516 C 243.122 282.664,241.705 279.176,231.878 274.265 L 227.094 271.875 166.672 271.875 L 106.250 271.875 106.250 181.205 C 106.250 114.675,106.493 89.571,107.162 86.913 C 108.316 82.331,113.312 77.116,117.645 75.970 C 123.747 74.357,281.525 74.741,280.849 76.367 M319.114 77.114 C 326.631 80.917,327.521 83.607,327.638 102.897 L 327.734 118.750 312.305 118.750 L 296.875 118.750 296.875 104.439 C 296.875 87.071,297.673 83.477,302.429 79.405 C 307.549 75.023,313.392 74.220,319.114 77.114 M215.234 92.518 C 211.137 94.500,209.545 96.315,205.591 103.516 L 201.731 110.547 194.068 114.907 C 184.870 120.142,182.676 122.867,182.184 129.672 C 181.554 138.381,183.880 141.812,194.510 147.852 L 201.727 151.953 205.747 159.186 C 211.173 168.952,213.625 170.703,221.875 170.703 C 230.134 170.703,232.585 168.951,237.983 159.186 C 241.851 152.190,242.171 151.847,247.749 148.720 C 266.442 138.238,267.272 124.746,249.814 115.173 C 243.052 111.464,242.390 110.876,239.712 106.188 C 234.416 96.919,233.520 95.683,230.707 93.755 C 227.246 91.384,218.951 90.720,215.234 92.518 M224.186 118.945 C 226.764 123.654,229.516 126.421,233.789 128.602 C 238.330 130.919,238.358 131.274,234.180 133.561 C 229.578 136.080,226.798 138.819,224.430 143.164 C 221.964 147.689,221.833 147.700,219.564 143.555 C 217.045 138.953,214.306 136.173,209.961 133.805 C 207.920 132.693,206.250 131.493,206.250 131.139 C 206.250 130.785,207.920 129.643,209.961 128.602 C 214.234 126.421,216.986 123.654,219.564 118.945 C 220.563 117.119,221.604 115.625,221.875 115.625 C 222.146 115.625,223.187 117.119,224.186 118.945 M165.208 151.875 C 161.160 153.639,158.397 157.245,152.776 168.105 L 147.349 178.590 136.844 184.022 C 122.408 191.485,119.531 194.660,119.531 203.125 C 119.531 211.633,122.275 214.655,136.877 222.228 L 147.349 227.660 152.776 238.145 C 160.260 252.603,163.419 255.469,171.875 255.469 C 180.332 255.469,183.490 252.603,190.977 238.139 L 196.408 227.648 206.196 222.613 C 220.849 215.076,224.219 211.432,224.219 203.125 C 224.219 194.721,221.333 191.548,206.839 184.015 L 196.401 178.590 190.974 168.164 C 182.459 151.806,175.485 147.398,165.208 151.875 M176.131 182.115 C 181.184 191.698,182.962 193.517,192.130 198.478 C 201.588 203.596,201.494 202.909,193.308 207.111 C 183.759 212.014,181.425 214.279,176.564 223.363 C 171.445 232.927,172.174 232.922,167.180 223.424 C 162.387 214.307,160.372 212.333,150.817 207.398 C 142.190 202.942,142.129 203.614,151.620 198.478 C 160.788 193.517,162.566 191.698,167.619 182.115 C 172.176 173.472,171.574 173.472,176.131 182.115 M222.815 291.602 C 223.838 292.408,224.125 295.101,224.459 307.031 C 224.836 320.482,225.370 324.217,227.724 329.883 C 228.416 331.548,90.565 332.044,84.034 330.400 C 79.816 329.338,75.641 325.958,73.775 322.097 C 71.403 317.188,71.078 294.547,73.348 292.277 L 75.000 290.625 148.288 290.625 C 205.737 290.625,221.844 290.836,222.815 291.602 " stroke="none" fill="#000000" fill-rule="evenodd"></path></g></svg>