<?xml version="1.0" standalone="no"?>
<!DOCTYPE svg PUBLIC "-//W3C//DTD SVG 20010904//EN"
 "http://www.w3.org/TR/2001/REC-SVG-20010904/DTD/svg10.dtd">
<svg version="1.0" xmlns="http://www.w3.org/2000/svg"
 width="24.000000pt" height="24.000000pt" viewBox="0 0 24.000000 24.000000"
 preserveAspectRatio="xMidYMid meet">

<g transform="translate(0.000000,24.000000) scale(0.100000,-0.100000)"
fill="#000000" stroke="none">
<path d="M127 209 c-10 -6 -27 -9 -38 -6 -14 4 -19 0 -20 -16 0 -12 -3 -16 -6
-9 -7 17 -23 15 -23 -3 0 -24 31 -31 46 -10 19 25 18 11 -2 -26 -16 -32 -21
-51 -29 -107 l-4 -34 20 26 c11 14 22 35 24 46 6 31 14 40 36 40 15 0 19 -7
19 -34 0 -35 21 -63 40 -51 8 5 7 11 -1 21 -8 9 -11 42 -10 86 2 50 -1 73 -11
79 -16 11 -19 11 -41 -2z m23 -54 c0 -18 -5 -25 -20 -25 -24 0 -26 13 -4 34
21 21 24 20 24 -9z"/>
</g>
</svg>
