<?xml version="1.0" standalone="no"?>
<!DOCTYPE svg PUBLIC "-//W3C//DTD SVG 20010904//EN"
 "http://www.w3.org/TR/2001/REC-SVG-20010904/DTD/svg10.dtd">
<svg version="1.0" xmlns="http://www.w3.org/2000/svg"
 width="24.000000pt" height="24.000000pt" viewBox="0 0 24.000000 24.000000"
 preserveAspectRatio="xMidYMid meet">

<g transform="translate(0.000000,24.000000) scale(0.100000,-0.100000)"
fill="#000000" stroke="none">
<path d="M28 203 c-16 -4 -17 -7 -3 -34 9 -16 16 -32 17 -36 5 -25 40 -92 55
-104 13 -11 15 -11 9 -1 -10 16 1 62 14 62 6 0 10 -6 10 -12 0 -7 10 -24 21
-38 11 -14 19 -18 16 -10 -5 18 30 119 50 141 12 14 12 17 -2 23 -9 3 -24 6
-33 6 -15 -1 -16 -2 -1 -13 14 -11 14 -16 -1 -61 -16 -48 -31 -51 -34 -7 -1 9
-7 32 -14 52 -10 30 -17 36 -33 32 -14 -4 -18 -11 -14 -22 4 -9 8 -24 10 -34
2 -9 7 -22 10 -27 3 -5 2 -18 -4 -27 -8 -15 -10 -14 -16 12 -8 38 -26 88 -34
96 -3 3 -14 4 -23 2z"/>
</g>
</svg>
